<svg id="map" xmlns="http://www.w3.org/2000/svg" viewBox="0 0 467.8 135.7"><path class="map-0" d="M32.8 119.6H434v4H32.8z"/><circle class="map-0" cx="34" cy="120.3" r="15.4"/><circle class="map-1" cx="34" cy="120.3" r="12"/><circle class="map-0" cx="84" cy="120.3" r="15.4"/><circle class="map-1" cx="84" cy="120.3" r="12"/><circle class="map-0" cx="134" cy="120.3" r="15.4"/><circle class="map-1" cx="134" cy="120.3" r="12"/><circle class="map-0" cx="184" cy="120.3" r="15.4"/><circle class="map-1" cx="184" cy="120.3" r="12"/><circle class="map-0" cx="234" cy="120.3" r="15.4"/><circle class="map-1" cx="234" cy="120.3" r="12"/><circle class="map-0" cx="284" cy="120.3" r="15.4"/><circle class="map-1" cx="284" cy="120.3" r="12"/><circle class="map-0" cx="334" cy="120.3" r="15.4"/><circle class="map-1" cx="334" cy="120.3" r="12"/><circle class="map-0" cx="384" cy="120.3" r="15.4"/><circle class="map-1" cx="384" cy="120.3" r="12"/><circle class="map-0" cx="434" cy="120.3" r="15.4"/><circle class="map-1" cx="434" cy="120.3" r="12"/><path class="map-0" d="M67.7 33.9C67.7 15.2 52.6 0 33.9 0 15.2 0 0 15.2 0 33.9 0 43 3.6 51.3 9.5 57.4v.6s19.8 19.3 23.6 42.6H35C38.7 77.3 58.4 58 58.4 58l-.2-.3c5.9-6.1 9.5-14.7 9.5-23.8z"/><circle class="map-1" cx="33.9" cy="34.6" r="28.6"/><path class="map-0" d="M467.8 33.9C467.8 15.2 452.7 0 434 0c-18.7 0-33.9 15.2-33.9 33.9 0 9.1 3.6 17.4 9.5 23.5v.6s19.8 19.3 23.6 42.6h1.9c3.8-23.2 23.5-42.6 23.5-42.6l-.2-.3c5.8-6.1 9.4-14.7 9.4-23.8z"/><circle class="map-1" cx="434" cy="34.6" r="28.6"/><g><path class="map-0" d="M409.9 39.8V29.4h1.5l2.3 5.4v-5.4h1.7v10.4H414l-2.3-5.8v5.8h-1.8zM416.6 39.8V29.4h4.3v1.4h-2.2v2.8h1.6v1.5h-1.6v3.2h2.2v1.4h-4.3zM422.7 39.8l-1.4-10.4h1.8l.6 6.9.9-6.9h1.5l.9 6.8.7-6.8h1.8L428 39.8h-1.8l-.9-6.8-.9 6.8h-1.7zM433.9 39.8v-3.4l-2-7h2l1 4.6c.1-.5.3-1.3.5-2.3.2-1 .4-1.8.5-2.3h1.9l-2 7v3.4h-1.9zM438.2 36.4v-3.5c0-2.5 1-3.7 3-3.7s3 1.2 3 3.7v3.4c0 .4 0 .8-.1 1.2-.1.4-.2.7-.3 1s-.3.6-.6.8c-.2.2-.5.4-.9.5-.4.1-.8.2-1.2.2-.4 0-.8-.1-1.2-.2-.4-.1-.6-.3-.9-.5-.2-.2-.4-.5-.6-.8s-.3-.6-.3-1c.1-.3.1-.7.1-1.1zm4 .4v-4.5c0-1-.3-1.5-.9-1.5-.2 0-.3 0-.5.1-.1.1-.2.2-.3.4-.1.2-.1.3-.1.5v5c0 1 .3 1.5.9 1.5.6.1.9-.5.9-1.5zM445.4 39.8V29.4h2.3c.5 0 1 0 1.4.1.4.1.7.3 1 .5.3.2.5.5.7.8.2.4.2.8.2 1.3v.6c0 .2-.1.4-.1.6-.1.2-.1.4-.2.6-.1.2-.2.3-.4.5s-.4.3-.6.4c.6 2 1.2 3.7 1.6 5H449l-1.2-4.8h-.3v4.8h-2.1zm2.1-6.1h.6c.2 0 .3-.1.4-.2.1-.1.2-.2.3-.4.1-.2.1-.3.1-.5v-.4-.4c0-.1 0-.3-.1-.4 0-.2-.1-.3-.2-.4-.1-.1-.2-.2-.4-.2h-.7v2.9zM451.8 39.8V29.4h2.1v3.9l1.6-3.9h2.3l-2.1 4.3 2.3 6.1h-2.2l-1.6-4.8-.4 1v3.8h-2z"/></g><g><path class="map-0" d="M15.4 39.8V29.4h2.1c.4 0 .7 0 1 .1.3 0 .6.1.9.2s.5.3.7.5c.2.2.3.5.4.8.1.3.2.7.2 1.1 0 .5-.1 1-.4 1.3-.3.3-.7.6-1.2.7 1.2.3 1.9 1.2 1.9 2.6 0 1-.2 1.8-.8 2.3-.5.5-1.3.8-2.3.8h-2.5zm2.1-6.3h.4c.2 0 .4 0 .5-.1l.3-.3c.1-.1.1-.3.1-.5V32v-.5s-.1-.2-.1-.3c0-.1-.1-.2-.2-.2-.1-.1-.1-.1-.2-.1s-.1 0-.3-.1-.2 0-.3 0h-.3v2.7zm0 4.8h.2c.3 0 .5 0 .7-.1.2-.1.3-.2.4-.3.1-.2.1-.3.2-.5v-.8c0-.5-.1-1-.3-1.3-.2-.3-.5-.5-1-.5h-.2v3.5zM21.9 36.4v-3.5c0-2.5 1-3.7 3-3.7s3 1.2 3 3.7v3.4c0 .4 0 .8-.1 1.2-.1.4-.2.7-.3 1-.1.3-.3.6-.6.8s-.5.4-.9.5c-.4.1-.8.2-1.2.2-.4 0-.8-.1-1.2-.2s-.6-.3-.9-.5c-.2-.2-.4-.5-.6-.8-.1-.3-.3-.6-.3-1s.1-.7.1-1.1zm3.9.4v-4.5c0-1-.3-1.5-.9-1.5-.2 0-.3 0-.5.1s-.2.2-.3.4c-.1.2-.1.3-.1.5v5c0 1 .3 1.5.9 1.5.6.1.9-.5.9-1.5zM28.7 36.8l2.1-.4v.6s0 .3.1.5c0 .2.1.3.1.5.1.1.1.2.2.3.1.1.2.1.4.1.4 0 .6-.3.6-.8 0-.7-.4-1.5-1.2-2.2l-.7-.6c-.2-.2-.4-.3-.5-.4-.1-.1-.3-.3-.4-.5s-.3-.4-.4-.6c-.1-.2-.2-.4-.2-.7s-.1-.5-.1-.8c0-.8.3-1.5.8-2s1.2-.7 2.1-.7c.7 0 1.4.3 1.9.8s.8 1.2.8 1.9V32.1l-2.2.3v-.2-.2-.4c0-.1-.1-.3-.1-.4 0-.1-.1-.2-.2-.3-.1-.1-.2-.1-.3-.1-.2 0-.4.1-.5.3-.1.2-.2.4-.2.6 0 .2 0 .4.1.6s.2.4.3.5l.4.4c.1.1.3.2.5.4s.3.3.4.3c.3.3.5.5.8.7.2.2.4.5.6.8.2.3.3.6.4.9.1.3.1.7.1 1.1 0 .7-.3 1.3-.8 1.8s-1.3.8-2 .8c-.5 0-.9-.1-1.3-.3-.4-.2-.7-.4-.9-.7s-.4-.6-.5-1-.2-.8-.2-1.2zM36.1 39.8V31h-1.5v-1.6h5.1V31h-1.5v8.8h-2.1zM40.2 36.4v-3.5c0-2.5 1-3.7 3-3.7s3 1.2 3 3.7v3.4c0 .4 0 .8-.1 1.2-.1.4-.2.7-.3 1-.1.3-.3.6-.6.8-.2.2-.5.4-.9.5-.3.1-.7.2-1.1.2-.4 0-.8-.1-1.2-.2-.3-.1-.6-.3-.9-.5-.2-.2-.4-.5-.6-.8-.1-.3-.3-.6-.3-1v-1.1zm3.9.4v-4.5c0-1-.3-1.5-.9-1.5-.2 0-.3 0-.5.1s-.2.2-.3.4-.1.3-.1.5v5c0 1 .3 1.5.9 1.5.6.1.9-.5.9-1.5zM47.3 39.8V29.4h1.5l2.3 5.4v-5.4h1.7v10.4h-1.5L49.1 34v5.8h-1.8z"/></g><g><path class="map-0" d="M33.2 125.3v-7.7h-1.1V116c.1-.1.3-.1.4-.2.2-.1.3-.2.4-.2.1-.1.2-.1.3-.3.1-.1.2-.3.3-.4H35v10.4h-1.8z"/></g><g><path class="map-0" d="M86.8 117.5c0 .5-.1.9-.2 1.4-.1.4-.3.9-.6 1.3s-.5.8-.8 1.1c-.2.3-.5.7-.9 1.1-.3.4-.6.7-.8.9h3.2v2h-5.5v-1.8l2.5-3.6c.1-.2.3-.4.4-.5.1-.2.2-.3.3-.5.1-.2.2-.4.2-.6.1-.2.1-.4.1-.6v-.4c0-.1-.1-.2-.1-.4s-.1-.2-.2-.3c-.1-.1-.2-.1-.3-.1-.1 0-.2 0-.3.1-.1 0-.2.1-.2.2-.1.1-.1.2-.1.3 0 .1-.1.2-.1.4V118.7h-2v-.7c0-.4 0-.7.1-1l.3-.9c.1-.3.3-.5.5-.7s.5-.3.8-.4.7-.2 1.1-.2c.9 0 1.6.3 2 .8.3.4.6 1.1.6 1.9z"/></g><g><path class="map-0" d="M131.2 121.9h2v1c0 .1 0 .2.1.3 0 .1.1.2.1.2l.2.2c.1 0 .2.1.3.1.1 0 .2 0 .3-.1s.2-.1.2-.1c.1-.1.1-.1.1-.2s.1-.2.1-.3v-.3-.3-.3c0-.5-.1-.9-.4-1.1s-.6-.4-1.1-.4v-2h.6c.2 0 .3-.1.4-.2.1-.1.2-.2.3-.4s.1-.4.1-.6v-.4s-.1-.2-.1-.3c-.1-.1-.1-.2-.2-.3-.1-.1-.2-.1-.4-.1-.1 0-.2 0-.3.1-.1 0-.2.1-.2.2-.1.1-.1.1-.1.2s-.1.2-.1.3V118.1h-2v-.7c0-.9.2-1.6.7-2.1.5-.5 1.2-.8 2.1-.8.9 0 1.6.3 2.1.8s.7 1.2.7 2.1c0 .4-.1.9-.3 1.2-.2.4-.4.7-.8.9.4.3.6.6.8 1.1.2.4.3.9.3 1.4 0 .5-.1.9-.2 1.3s-.3.7-.5 1c-.2.3-.5.5-.9.7-.4.2-.8.2-1.3.2-.4 0-.8-.1-1.1-.2-.3-.1-.6-.3-.8-.4-.2-.2-.4-.4-.5-.7l-.3-.9c-.1-.3-.1-.7-.1-1v-.1z"/></g><g><path class="map-0" d="M181.1 122.7v-1.6l2.5-6.2h2.4v6.3h1v1.6h-1v2.5h-2v-2.5h-2.9zm1.8-1.6h1.1V118l-1.1 3.1z"/></g><g><path class="map-0" d="M231.3 122h2v.9s0 .3.1.4c0 .1.1.2.1.3 0 .1.1.2.2.2s.2.1.3.1c.1 0 .2 0 .3-.1.1 0 .2-.1.2-.2.1-.1.1-.2.2-.3 0-.1.1-.2.1-.4v-.4-.4-.3-.2-.3-.3s0-.2-.1-.3c0-.1-.1-.2-.1-.3-.1-.1-.1-.2-.2-.2s-.2-.1-.3-.1c-.2 0-.4.1-.5.2-.1.2-.3.4-.3.6h-1.7v-6h4.9v2h-3.1v1.9c.4-.2.7-.3 1-.3.4 0 .7.1 1 .2.3.1.5.3.7.5.2.2.3.4.4.7s.2.6.2.9c0 .3.1.6.1 1v1c0 .3-.1.6-.2.9-.1.3-.2.6-.3.8-.1.2-.3.4-.5.6s-.4.3-.7.4c-.3.1-.6.2-1 .2s-.8-.1-1.1-.2c-.3-.1-.6-.3-.8-.5-.2-.2-.4-.5-.5-.8l-.3-.9s-.1-.9-.1-1.3z"/></g><g><path class="map-0" d="M281.3 122.1v-3.7c0-.4 0-.7.1-1.1.1-.3.1-.7.3-1s.3-.6.5-.9c.2-.2.5-.4.8-.6s.7-.2 1.1-.2c.4 0 .8.1 1.1.2.3.2.6.4.8.6.2.3.4.6.5 1 .1.4.2.8.2 1.2v.2h-2v-.4-.4c0-.1-.1-.3-.1-.4 0-.1-.1-.2-.2-.2-.1-.1-.2-.1-.3-.1-.5 0-.8.7-.8 2v.6c.4-.2.8-.4 1.2-.4.4 0 .7.1 1 .2s.5.3.7.5c.2.2.3.4.4.7.1.3.2.6.2.9 0 .3.1.6.1 1s0 .7-.1 1.1-.2.7-.3 1c-.1.3-.3.6-.5.8-.2.2-.5.4-.8.5s-.7.2-1.1.2c-.4 0-.7-.1-1.1-.2s-.6-.3-.8-.5c-.2-.2-.4-.5-.5-.8s-.3-.6-.3-.9-.1-.6-.1-.9zm2-1.2v1.6c0 .1 0 .2.1.4 0 .1.1.3.1.4s.1.2.2.3c.1.1.2.1.3.1h.2s.1-.1.2-.1.1-.1.1-.1.1-.1.1-.2.1-.2.1-.2v-.2-.2-.2-.2-.2-.3-.3s0-.2-.1-.3c0-.1-.1-.2-.1-.3s-.1-.2-.2-.2-.2-.1-.3-.1c-.2-.2-.5-.1-.7.3z"/></g><g><path class="map-0" d="M332.5 125.3l1.8-8.6h-2.5V115h4.5v1l-1.8 9.4h-2z"/></g><g><path class="map-0" d="M382.1 119.8c-.5-.5-.8-1.3-.8-2.2 0-.9.2-1.6.7-2.1s1.1-.8 2-.8c.9 0 1.5.3 2 .8s.7 1.2.7 2.1c0 1-.3 1.7-.8 2.2l.5.5.3.6c.1.2.1.4.1.6v.7c0 .5 0 .9-.1 1.3s-.3.7-.5 1c-.2.3-.5.5-.9.7-.4.2-.8.2-1.3.2-1.9 0-2.8-1.1-2.8-3.2 0-.5.1-1 .2-1.4.1-.4.3-.7.7-1zm1.6 4c.1 0 .2.1.3.1.1 0 .2 0 .3-.1.1 0 .2-.1.2-.1.1-.1.1-.1.1-.2s.1-.2.1-.3v-.3-.3-.3c0-1.1-.3-1.7-.8-1.7-.6 0-.8.6-.8 1.7V123.2c0 .1 0 .2.1.2 0 .1.1.2.1.2.2.1.3.1.4.2zm.3-4.7c.1 0 .2 0 .2-.1.1 0 .1-.1.2-.2s.1-.2.1-.3c0-.1.1-.2.1-.3v-.3-.3-.3c0-.7-.2-1.1-.7-1.1-.1 0-.3 0-.3.1-.1.1-.2.2-.2.3s-.1.2-.1.4v1s0 .3.1.4c0 .1.1.2.1.3 0 .1.1.2.2.2.1.1.2.2.3.2z"/></g><g><path class="map-0" d="M431.3 122.4v-.2h2v.6c0 .1 0 .2.1.3 0 .1.1.2.1.3 0 .1.1.1.2.2.1 0 .2.1.3.1s.2 0 .3-.1c.1-.1.2-.1.2-.2s.1-.2.1-.3c0-.1.1-.3.1-.4v-.4-.4-.3-.4c-.3.2-.7.3-1.2.3-1.6 0-2.4-1.1-2.4-3.2 0-.4 0-.7.1-1.1s.2-.7.3-1 .3-.6.5-.8c.2-.2.5-.4.8-.5.3-.1.7-.2 1.1-.2.4 0 .7.1 1.1.2s.6.3.8.6c.2.2.4.5.5.8s.3.6.3 1 .1.7.1 1v3.2c0 .4 0 .8-.1 1.1 0 .4-.1.7-.3 1.1-.1.4-.3.7-.5.9s-.5.5-.8.6-.7.2-1.1.2c-.4 0-.8-.1-1.2-.2-.3-.2-.6-.4-.8-.6-.2-.3-.4-.6-.5-.9 0-.4-.1-.8-.1-1.3zm3.5-3.1v-1.4-.5c0-.1-.1-.3-.1-.5s-.1-.3-.2-.4c-.1-.1-.3-.2-.4-.2-.1 0-.2 0-.3.1-.1 0-.2.1-.2.2-.1.1-.1.2-.1.3 0 .1-.1.2-.1.3v1.8s0 .2.1.3c0 .1.1.2.1.2l.2.2c.1 0 .2.1.3.1.2 0 .3 0 .4-.1s.2-.3.3-.4z"/></g></svg>