<svg id="plan-logo" xmlns="http://www.w3.org/2000/svg" viewBox="0 0 415.6 134.1"><style>.plan-0{fill:#FFFFFF;}</style><path class="plan-0" d="M88.8 0c2.9.5 5.9.8 8.8 1.4 1.5.3 3 1 4.5 1.6.8.3 1.6.7 2.5.8 3.7.7 7.4 1.4 11.1 2 .6.1 1.2-.1 1.8 0 .8.1 1.7.2 2.5.5 2 .7 3.9 1.6 5.8 2.4.6.2 1.3.3 1.8.6 6.8 3.9 13.6 7.8 20.4 11.9 1.7 1 3 2.6 4.5 4 3.8 3.7 7.6 7.5 11.4 11.3 1.7 1.7 3 3.5 2.8 6.1 0 .5.8 1.4 1.5 1.6 1.9.6 2.4 1.9 1.9 3.5-.8 2.7-.6 5.1.5 7.7 2 5 1.9 10.4 1.1 15.6-.7 4.8-1.7 9.8-3.5 14.3-1.6 4.1-4.2 7.8-6.7 11.4-1.1 1.7-2.8 2.9-4.2 4.4-.1-.1-.2-.2-.3-.4 0-.4.1-.8.1-1.1.1-.3.2-.6.4-.9-.2 0-.3 0-.5.1-.4.1-.8.1-1.2.2 0-.3.1-.5.2-1.1-.5.5-.8.7-1 1-.2-.3-.5-.7-.4-.9.6-1.2 1.4-2.3 2.1-3.4.1-.2.3-.5.4-.7-.2-.1-.3-.1-.5-.2-.9.5-1.8 1.1-2.7 1.5-.2.1-.7-.4-1-.6 1-1.2 2-2.3 3-3.5-.2-.2-.5-.4-.7-.6-.9 1.2-1.8 2.4-2.7 3.5-.8.5-1.7 1.1-2.5 1.6-.1.1-.3.2-.4.3-.6-.2-1.2-.5-1.5-.6 1.3-1.8 2.3-3.2 3.4-4.7-.5-.6-1.1-1.2-1.7-1.8-.4.5-.8 1-1.2 1.6-.2.1-.5.2-.7.3-.6.2-1.1.5-1.7.7-.2-.1-.3-.2-.5-.2v.1c.3-.6.8-1.2 1-1.8.2-.4.2-.9.3-1.4-.5.1-1.1.1-1.4.4-2.4 1.8-4.7 3.6-7.4 5.2.9-1.3 1.9-2.6 2.8-4l-.4-.4c-1.6 1.1-3.2 2.3-5.1 3.7-.1-3 1.8-4.4 3.2-6 6-7.1 9.8-15 8.5-24.5-.6-4.3-1.9-8.5-4.9-12-1.2-1.4-2-3.1-3.1-4.5-4.4-5.3-10-9.3-16-12.5-2.7-1.4-5.2-3-8-4.2-3.3-1.4-6.6-2.8-10.5-2.7-3.2.1-6.4-.9-9.6-1.1-5.2-.5-10.3-.8-15 2.4-1.3.9-2.9 1.2-4.4 1.7-2.4.7-4.8 1.1-7.2 1.9-5 1.8-10.2 3.3-14.8 5.8-4.7 2.5-8.8 6.1-13.2 9.2-4.1 2.8-7.6 6.1-9.9 10.4-4 7.5-3.9 15.1-.2 22.7 2.4 4.9 6.1 8.4 10 12.1 5.8 5.7 12.9 8.2 20.2 10.6 1.8.6 3.7.6 5.5.9.2-.1.3-.3.5-.4.3-2 .8-4 1-6 .2-3.2.4-6.5.2-9.7-.1-2.3-.4-4.9-1.6-6.8-.9-1.6-3.1-2.8-4.9-3.3-5.2-1.6-8-5.6-10.7-9.8-.8-1.2 2.1-4.4 3.7-4 1.7.4 3.4 1.2 5 1.9 3.9 1.7 7.5 4.3 12 4.3.5 0 .9-.1 1.6-.1-.8-1.7-1.8-3.1-2.2-4.6-.7-2.8-1.2-5.6-1.5-8.5-.1-.9.9-2.5 1.7-2.7 3.1-.9 5.9-2.7 9.5-2.3 7.3.9 11.2 5 10.3 12.4v1.2c3.5-.6 5.7-2.8 7.5-5.6 1.2-1.9 2.6-3.6 4.3-5.1.7-.6 2.5-.5 3.4-.1 1 .5 1.8 1.8.4 3.1-.3.3-.3 1.2-.2 1.8.5 6.4-3.6 10.7-7.3 15-1.2 1.4-3.2 2.2-4.9 3.2l.3 1.2c3.3.6 6.6 1.4 9.9 1.9 3.9.6 7.9 1 11.8 1.5 1.8.2 2.8 1.1 2 3.1-.2.4-.2.9-.2 1.4-.3 3.5-2.6 5.4-6.1 4.9-4.2-.6-8.3-1.4-12.5-1.7-4.4-.3-8.9-.1-13 1.8-.7.3-1.5 1.1-1.7 1.8-1 3.7-2 7.5-2.7 11.3-.5 2.4 1.4 3.4 3.2 3.6 7 .8 14 1.8 21.1.2 2.1-.5 4.4-.3 6.6-.6 1.6-.2 3.2-.6 4.7-.8 1-.1 2.1-.1 3.1-.2.3-.2.6-.3 1-.5 1.1-.5 2.2-1 3.2-1.5.5-.2 1.1-.5 1.6-.7.1.2.1.4.1.3 0 0 .1-.2.2-.5.3.1.7.2 1 .2v1.6c.3.4.6.8 1 1.2h-.3c.1 0 .1.1.2.1s.1-.1.1-.1c.7 1.9 2.3.5 3.3.8 0 .2.1.3.1.5-.3.5-.6.9-.8 1.4-1.1 2.3-1.1 2.3 1.6 2.4.3.1.5.3.8.4.4-.1 1.2-.3 1.3-.2 1.1 3.3 2.9.8 4.4.5l2.7-.6c.1.2.1.3.2.5-.4.7-.6 1.6-1.2 2.1-5.4 4.2-10.8 8.5-16.4 12.4-5.8 4-12.6 5.8-19.5 6.6-10.7 1.2-21.4.9-32-1-1.2-.2-2.2-.9-3.4-1.1-1.1-.3-2.3-.3-3.4-.4-.8-.1-1.6.2-2.3 0-6.4-2.1-12.9-4.2-19.2-6.5-11.2-4.1-20.7-10.9-28.9-19.4-.9-1-1.4-2.4-2.1-3.6-.1-.2-.2-.3-.4-.5-1.2-1.5-2.2-3.3-3.7-4.5-4.6-3.9-4.3-10.1-7-14.9-.2-.3-.1-.8-.2-1.2-.6-2.8-1.1-5.5-1.7-8.3-.1-.6-.2-1.3-.4-1.9V60c.5-.5 1.2-.9 1.5-1.5.7-1.8 1-3.9 1.8-5.6C5 49 7 45.3 8.8 41.4c3-6.4 7.5-11.6 12.9-15.8 6.2-4.8 12.6-9.6 19.4-13.5 5.4-3 11.5-5.1 17.4-7.2C64 2.9 69.7 1.6 75.4 0h13.4zM0 70.1c.1.6.2 1.3.4 1.9H0v-1.9zM201 67V45.2c0-9.4 5.4-14.8 14.7-14.8 8.4 0 16.8 0 25.2.5 3.3.2 6.8 1.2 9.9 2.5 5.6 2.3 9.1 6.6 10.8 12.4 1.6 5.8 1.8 11.7.3 17.5-2.6 10.1-10 15-19.7 16.9-3.1.6-6.3.6-9.5.9-1.7.2-3.4.2-5 .6-3 .7-4.1 2.1-4.4 5.2-.2 2.7-.1 5.5-.6 8.1-1.3 7.1-6.7 10.6-13.7 9.2-4.1-.9-7.1-4.5-7.9-9.8-.3-1.8-.4-3.7-.4-5.5V67.1c.1-.1.2-.1.3-.1zm29.3-22.4c-6.5 0-10.4 4.1-10.5 11-.1 7 4 11.5 10.4 11.5 7.1 0 13.3-5.3 13.4-11.4.1-6-6-11-13.3-11.1zM380.5 50.6c3.8-3 7.8-5.8 12.7-6.1 3.8-.2 7.9 0 11.5 1 5.4 1.4 8.3 5.9 9.4 11.1.8 3.3 1.2 6.8 1.3 10.2.1 9.3.3 18.5-.3 27.8-.4 7.4-6.1 11.2-13.4 10.1-3.1-.5-5.4-2.6-6.1-6.2-.4-2-.6-4.1-.6-6.2-.2-6.1-.1-12.3-.4-18.4-.2-4.3-1.9-6-5.5-6.2-3.5-.2-5.8 1.7-6.5 5.6-.4 2.3-.4 4.8-.5 7.2-.1 4.6.1 9.3-.2 13.9-.4 6.6-3.4 10.3-8.3 10.5-7.4.3-11.5-2.6-12.2-9.7-.6-6.6-.5-13.2-.6-19.9-.1-6.6 0-13.1.1-19.7 0-5.7 2.1-9 6.4-10.2 5.4-1.6 9.4-.1 12.5 4.7.3 0 .4.2.7.5zM336.9 99.4c-12.9 8.2-29.8 3-36.1-11.7-6.2-14.3-2-30.9 9.9-39 7.4-5 15.6-5.9 24.1-4.8 3.1.4 6.4 1.1 9.2 2.5 5.9 2.9 8.9 8.2 9.1 14.7.3 11.3.4 22.7.3 34-.1 6.5-5 9.9-11.2 8-1.8-.5-3.3-2.3-5.3-3.7zm1.1-27.3c.1-6.6-3.9-10.5-10.8-10.6-6.9-.1-11.6 4-11.6 10.3 0 7 5.3 13.4 11.4 13.5 5.9.2 10.9-5.7 11-13.2zM290.9 67c0 9 .3 18.1-.1 27.1-.4 8.1-7.4 12.9-14.5 10.5-4.9-1.6-7.1-5.5-7.4-10.2-.5-6.1-.4-12.3-.5-18.4 0-10.1.1-20.2.2-30.2 0-2.8.1-5.6.7-8.3 1.3-5.6 5-8.5 10.3-8.5 5.7 0 9.5 3 10.7 8.7.5 2.4.7 4.9.7 7.4.1 7.4 0 14.7 0 22.1 0-.2 0-.2-.1-.2z"/><path class="plan-0" d="M93.6 34.7c.6 0 1.4.2 1.8-.1 2.6-2.3 5-1.7 7.4.4.2.2.6.1.9.1.5 2.4 1 4.8 1.4 7.2v-.1c-.6.4-1.2.8-1.7 1.4-2.8 3.3-7.1 4.2-10.6 1.9-1-.6-1.6-2.6-1.5-3.9 0-2.1.4-4.4 2.3-6 .1-.2 0-.7 0-.9.1-.1 0 0 0 0zm5.5 2.3c-2.5.1-4.8 2.2-4.6 4.1.1.6 1.1 1.5 1.8 1.5 1.7.1 4.8-2.6 4.5-4-.2-.8-1.3-1.3-1.7-1.6zM103.7 35c.8-2.4 2.6-2.6 4.8-2.5-.7 3-.9 3.1-4.8 2.5 0 .1 0 0 0 0z"/><path class="plan-0" d="M105.1 42.1v.1c1.7-1.5 3.4-.5 5.1 0-1.7 2.4-3.4 2.4-5.1-.1zM93.6 34.7s.1-.1 0 0c-2.6.6-2.9-.1-2.2-4.2 1.8 1 2.7 2.2 2.2 4.2zM98 31.1c.5-1.5 1.1-2.9 1.9-4.9 1.5 3.2 1.1 4.4-1.1 5.3-.3-.2-.5-.3-.8-.4zM88.2 40c-.9-.8-1.5-1.4-2.2-2 .6-.4 1.2-1.1 1.7-1 .9.1 1.7.7 2.5 1.1-.5.5-1.1 1.1-2 1.9zM102.1 47c.6.9 1.3 1.9 1.9 2.8-.6.4-1.2.7-1.8 1.1-.5-1.1-1-2.1-1.5-3.2.5-.2 1-.5 1.4-.7zM145.5 91.7c.5 2.8-1.8 3.4-3.4 4.4-.2-.2-.4-.3-.6-.5 1.3-1.5 2.6-2.9 3.9-4.4v-.1c.1.2.1.4.1.6zM86.2 46.9c.3-1.7 1.8-1.9 3.2-2.1.2 0 .5 1 .7 1.5-1.2.5-2.3 1-3.5 1.5-.1-.3-.2-.6-.4-.9zM95 53.1c-.7-1-1.2-1.5-1.1-1.8.3-1 .9-1.9 1.4-2.8.4.4 1.2.9 1.1 1.2-.2 1-.7 1.9-1.4 3.4zM130.8 98.2c-.8.7-1.6 1.4-2.5 2.1l-.8-.8c.8-.7 1.7-1.4 2.5-2.2.3.3.5.6.8.9zM133 94.5c.4.1.8.2 1.9.4-1.5 1.1-2.5 1.9-3.6 2.6l-.4-.4c.7-.8 1.4-1.6 2.1-2.6zM152.3 94.1c.9-1.2 1.8-2.4 2.7-3.5.2.2.5.4.7.6-1 1.2-2 2.3-3 3.5-.2-.3-.3-.4-.4-.6zM141.8 112.3c-.1-.2-.1-.3-.2-.5.5-.2 1-.5 1.6-.7.1.4.2.7.3 1.1-.6 0-1.1.1-1.7.1zM127.2 103.9h2.5v.2c-.7.3-1.3.7-2 1-.1-.4-.3-.8-.5-1.2zM133.3 112.2c-.3-.1-.5-.3-.8-.4l.3-1.2h.5v1.6zM131.6 108c0-.2-.1-.3-.1-.5.5-.2 1-.3 1.4-.5-.4.4-.8.7-1.3 1zM121 106c-.3.2-.6.3-1 .5 0-.5.1-1 .2-2.1.4.9.6 1.3.8 1.6zM153.1 105.2c-.3.3-.6.6-.8.9l-.4-.4c.3-.2.5-.4.8-.7.1.1.3.1.4.2z"/><path class="plan-0" d="M127.2 103.9l.6 1.2c-.2.1-.3.3-.5.4-.1-.5-.1-1.1-.1-1.6zM132.3 105.5c-.1.1-.1.3-.2.4-.1 0-.3-.1-.4-.2.1-.1.1-.3.2-.4.1 0 .3.1.4.2zM126.1 103.6c-.1.2-.2.5-.2.5 0 .1 0-.1-.1-.3.1-.1.2-.2.3-.2zM154.9 98.8l1-1c-.1.6-.1.8-.2 1.1-.3 0-.5 0-.8-.1zM153.1 105.2c-.1-.1-.3-.1-.4-.1.2-.2.4-.5.6-.7.1.1.2.2.4.3-.2.2-.4.3-.6.5z"/><path class="plan-0" d="M153.3 104.4c.2-.3.5-.5.7-.8.2.1.3.2.5.4-.3.2-.6.5-.8.7-.2-.1-.3-.2-.4-.3zM147.6 90.7c.2-.1.5-.2.7-.3-.2.1-.5.2-.7.3zM132.9 94.6c-.1-.2-.2-.3-.3-.5 0 0 .1-.1.2-.1 0 .1.1.3.1.6.1-.1 0 0 0 0zM135.1 93.9c-.1 0-.2.1-.3.1 0-.1 0-.1-.1-.2.1 0 .2 0 .4.1zM156.9 98.7c.2 0 .3 0 .5-.1-.1.3-.2.6-.4.9 0-.2 0-.5-.1-.8zM156.4 93.8c.2.1.3.1.5.2-.1.2-.3.5-.4.7 0-.4-.1-.7-.1-.9zM145.5 91.7c0-.2-.1-.3-.1-.5.2.1.3.2.5.2-.1.1-.2.2-.4.3zM133 107c0-.1.1-.1.1-.2-.1.1-.1.2-.1.2zM128.2 106.7c0 .1-.1.1-.1.1s-.1-.1-.2-.1h.3zM149.3 96c.1-.1.3-.2.4-.3-.1.2-.2.3-.4.3zM13 100.8c.1.2.2.3.4.5-.2-.2-.3-.4-.4-.5zM156.4 101.2l.5-.5c.1.1.2.2.3.4l-.5.5c0-.1-.2-.3-.3-.4zM129.7 104.1v-.2h.4c-.1 0-.3.1-.4.2z"/><path class="plan-0" d="M155.9 101.7c.2-.1.4-.3.5-.4l.3.3c-.2.2-.4.4-.5.6-.1-.2-.2-.4-.3-.5zM155 103.4l-.5.5c-.2-.1-.3-.2-.5-.4l.5-.5c.1.2.3.3.5.4z"/><path class="plan-0" d="M156.2 102.2c-.2.1-.4.1-.6.2.1-.2.2-.5.2-.7.2.1.3.3.4.5zM154.5 103.1c.2-.1.5-.2.7-.2-.1.2-.1.4-.2.6-.2-.2-.4-.3-.5-.4zM66.2 102.7c-.2.1-.3.3-.5.4.2-.1.4-.2.5-.4zM99.1 37c.4.3 1.5.9 1.6 1.6.3 1.4-2.8 4.1-4.5 4-.6 0-1.7-.9-1.8-1.5-.1-1.9 2.2-4.1 4.7-4.1z"/></svg>